<svg xmlns="http://www.w3.org/2000/svg" viewBox="0 0 820 180" role="img" aria-labelledby="title desc"><title id="title">IB-TECH ePINs</title><desc id="desc">IB-TECH ePINs logo with laptop, handset and location pin</desc><defs><linearGradient id="blue" x1="0" y1="0" x2="1" y2="1"><stop offset="0" stop-color="#0b5ed7"/><stop offset="1" stop-color="#073f96"/></linearGradient><linearGradient id="green" x1="0" y1="0" x2="1" y2="1"><stop offset="0" stop-color="#0cc36a"/><stop offset="1" stop-color="#078e50"/></linearGradient></defs><g transform="translate(8 10)"><ellipse cx="78" cy="78" rx="72" ry="70" fill="none" stroke="url(#blue)" stroke-width="14"/><path d="M21 119c18 17 48 27 76 25 30-2 51-13 66-31" fill="none" stroke="url(#green)" stroke-width="12" stroke-linecap="round"/><rect x="25" y="43" width="76" height="53" rx="6" fill="#fff" stroke="#0b5ed7" stroke-width="7"/><path d="M18 101h90l10 10H8z" fill="#0b5ed7"/><rect x="103" y="37" width="35" height="66" rx="8" fill="#0b5ed7"/><circle cx="120.5" cy="91" r="3" fill="#fff"/><circle cx="120" cy="57" r="13" fill="#1c9b73"/><path d="M120 47c-7 0-12 5-12 12 0 9 12 21 12 21s12-12 12-21c0-7-5-12-12-12z" fill="#0cc36a"/><circle cx="120" cy="59" r="4" fill="#fff"/></g><text x="185" y="102" font-family="Arial,Helvetica,sans-serif" font-weight="800" font-size="72" fill="#073f96">IB-TECH</text><text x="526" y="102" font-family="Arial,Helvetica,sans-serif" font-weight="800" font-size="72" fill="#078e50">ePINs</text></svg>